<?xml version="1.0" encoding="UTF-8" standalone="no"?>
<svg width="528px" height="351px" viewBox="13 219 528 351" xmlns="http://www.w3.org/2000/svg" xmlns:xlink="http://www.w3.org/1999/xlink">
<title>generated by pstoedit</title>
<g>
<g stroke="#000" stroke-linecap="round" stroke-width=".5" fill="none">
<path d="m413.34 274.32v-49.08"/>
</g>
<g stroke-width="0" fill="#000">
<path d="m413.34 272.52s2.91-0.34 6.67 2.05c0 0 4.96 4.45 3.59 9.24 0 0-0.74 5.64-3.93 4.79 0 0-2.4-1.54-6.33-1.54"/>
</g>
<g stroke="#000" stroke-linecap="round" stroke-width="1.2" fill="none">
<path d="m414.88 274.06l-0.85-49.59s0-0.68-0.69-1.03"/>
</g>
<g>
<g stroke-width="0" fill="#000">
<path d="m413.34 310.48s7.36 0.18 9.92-1.2c0 0 4.96-1.7 5.13 2.74 0 0-0.51 9.75-15.05 8.89"/>
</g>
<g stroke="#000" stroke-width="1.1" fill="none">
<path d="m445.49 302.79l34.2 5.64s1.2-0.17-0.17-0.85l-21.89-5.48"/>
</g>
<g stroke-width="0" fill="#fff">
<path d="m456.43 302.44v5.99s0.51 1.37 1.54 1.54c0 0 1.54-0.34 1.54-1.88v-5.81"/>
</g>
</g>
<g stroke="#000" fill="none">
<g stroke-width="1.1">
<path d="m456.43 302.44v5.99s0.51 1.37 1.54 1.54c0 0 1.54-0.34 1.54-1.88v-5.81"/>
</g>
<g stroke-linecap="round" stroke-width=".8">
<path d="m457.97 309.12v-6.84"/>
</g>
</g>
<g stroke-width="0" fill="#fff">
<path d="m488.07 301.76v5.99s0.51 1.37 1.53 1.53c0 0 1.54-0.34 1.54-1.87v-5.82"/>
</g>
<g stroke="#000" fill="none">
<g stroke-width="1.1">
<path d="m488.07 301.76v5.99s0.51 1.37 1.53 1.53c0 0 1.54-0.34 1.54-1.87v-5.82"/>
</g>
<g stroke-linecap="round">
<g stroke-width=".8">
<path d="m489.6 308.43v-6.84"/>
</g>
<g stroke-width="1.2">
<path d="m413.34 323.99s19.15 1.37 17.96-16.76c0 0-2.23-4.44 21.03-4.95 23.26-0.52 70.96-1.2 70.96-1.2l0.86 1.54s1.03 0.68 2.05 0.17c0 0 1.03-1.03 0.34-2.39l-1.19-2.06s-1.89-0.34-2.23 0.86l0.86 1.54-0.86-1.71-76.09-1.03s-11.8 1.71-23.43-15.56"/>
</g>
<g stroke-width=".9">
<path d="m413.34 292.02s12.66 0.85 13.51 9.74c0 0-0.34 4.96-4.44 5.82 0 0-3.77 1.19-9.07 1.02"/>
<path d="m413.34 289.11s5.99-0.68 11.46 5.13c0 0 3.76 5.13 1.71 9.06"/>
<path d="m419.84 293.56l1.03-2.4"/>
<path d="m422.92 292.36s2.39-4.96 1.54-8.72"/>
<path d="m427.19 300.05l2.4-10.26"/>
<path d="m424.46 288.08s3.25 2.91 4.27 5.13"/>
<path d="m429.25 291.84s4.95 5.99 14.53 8.38h79.51"/>
<path d="m427.02 301.76l18.98-1.36"/>
<path d="m435.91 301.08l0.35-3.94"/>
<path d="m437.28 297.66v-2.06"/>
<path d="m446.86 300.05v-2.05"/>
<path d="m425.14 305.87s7.18-2.05 19.5-3.25"/>
<path d="m427.02 305.52s3.25 1.03 3.59 2.91"/>
</g>
</g>
<g stroke-linecap="square" stroke-width="3">
<path d="m431.64 311.85s7.52 3.08 7.52 14.19"/>
</g>
</g>
<g stroke-width="0" fill="#000">
<path d="m436.77 325.52c0.93 0 1.69-0.76 1.69-1.7 0-0.93-0.76-1.69-1.69-1.69s-1.69 0.76-1.69 1.69c0 0.94 0.76 1.7 1.69 1.7z"/>
</g>
<g stroke="#000" stroke-linecap="square" stroke-width="3" fill="none">
<path d="m395.6 310.61s-7.67 2.71-8.2 13.81"/>
</g>
<g stroke-width="0" fill="#000">
<path d="m389.81 324.01c-0.93-0.05-1.65-0.84-1.61-1.77 0.05-0.94 0.84-1.66 1.78-1.61 0.93 0.04 1.65 0.84 1.61 1.77-0.05 0.94-0.84 1.66-1.78 1.61z"/>
<path d="m439.34 345.71v-12.65s2.22-3.77 4.95 0v12.48"/>
</g>
<g stroke="#000" stroke-linecap="round" stroke-width="1.1" fill="none">
<path d="m423.94 322.11l4.28 12.99-2.22-14.19"/>
</g>
<g stroke-width="0" fill="#000">
<path d="m413.34 272.52s-2.91-0.34-6.67 2.05c0 0-4.95 4.45-3.59 9.24 0 0 0.74 5.64 3.94 4.79 0 0 2.39-1.54 6.32-1.54"/>
</g>
<g stroke="#000" stroke-linecap="round" stroke-width="1.2" fill="none">
<path d="m411.8 274.06l0.86-49.59s0-0.68 0.68-1.03"/>
</g>
<g>
<g stroke-width="0" fill="#000">
<path d="m413.34 310.48s-7.35 0.18-9.91-1.2c0 0-4.97-1.7-5.14 2.74 0 0 0.52 9.75 15.05 8.89"/>
</g>
<g stroke="#000" stroke-width="1.1" fill="none">
<path d="m381.2 302.79l-34.2 5.64s-1.2-0.17 0.17-0.85l21.89-5.48"/>
</g>
<g stroke-width="0" fill="#fff">
<path d="m370.25 302.44v5.99s-0.51 1.37-1.54 1.54c0 0-1.54-0.34-1.54-1.88v-5.81"/>
</g>
</g>
<g stroke="#000" fill="none">
<g stroke-width="1.1">
<path d="m370.25 302.44v5.99s-0.51 1.37-1.54 1.54c0 0-1.54-0.34-1.54-1.88v-5.81"/>
</g>
<g stroke-linecap="round" stroke-width=".8">
<path d="m368.71 309.12v-6.84"/>
</g>
</g>
<g stroke-width="0" fill="#fff">
<path d="m338.62 301.76v5.99s-0.52 1.37-1.54 1.53c0 0-1.54-0.34-1.54-1.87v-5.82"/>
</g>
<g stroke="#000" fill="none">
<g stroke-width="1.1">
<path d="m338.62 301.76v5.99s-0.52 1.37-1.54 1.53c0 0-1.54-0.34-1.54-1.87v-5.82"/>
</g>
<g stroke-linecap="round">
<g stroke-width=".8">
<path d="m337.08 308.43v-6.84"/>
</g>
<g stroke-width="1.2">
<path d="m413.34 323.99s-19.15 1.37-17.95-16.76c0 0 2.22-4.44-21.03-4.95-23.26-0.52-70.97-1.2-70.97-1.2l-0.85 1.54s-1.03 0.68-2.06 0.17c0 0-1.02-1.03-0.34-2.39l1.2-2.06s1.88-0.34 2.22 0.86l-0.85 1.54 0.85-1.71 76.1-1.03s11.79 1.71 23.42-15.56"/>
</g>
<g stroke-width=".9">
<path d="m413.34 292.02s-12.65 0.85-13.51 9.74c0 0 0.35 4.96 4.45 5.82 0 0 3.76 1.19 9.06 1.02"/>
<path d="m413.34 289.11s-5.98-0.68-11.45 5.13c0 0-3.77 5.13-1.71 9.06"/>
<path d="m406.84 293.56l-1.02-2.4"/>
<path d="m403.77 292.36s-2.4-4.96-1.54-8.72"/>
<path d="m399.49 300.05l-2.39-10.26"/>
<path d="m402.23 288.08s-3.25 2.91-4.28 5.13"/>
<path d="m397.44 291.84s-4.96 5.99-14.53 8.38h-79.52"/>
<path d="m399.66 301.76l-18.98-1.36"/>
<path d="m390.77 301.08l-0.34-3.94"/>
<path d="m389.4 297.66v-2.06"/>
<path d="m379.83 300.05v-2.05"/>
<path d="m401.54 305.87s-7.18-2.05-19.49-3.25"/>
<path d="m399.66 305.52s-3.25 1.03-3.59 2.91"/>
</g>
<g stroke-width="1.1">
<path d="m402.74 322.11l-4.28 12.99 2.23-14.19"/>
</g>
</g>
</g>
<g stroke-width="0" fill="#000">
<path d="m411.36 345.6v-10.12s1.78-3.01 3.96 0v9.99"/>
</g>
<g stroke="#000" fill="none">
<path d="m414.37 327.58v4.11h-2.05v-4.11z"/>
<path d="m411.38 341.48s-1.46-0.13-1.46-0.73v-6.84s0.13-1.07 0.86-1.07l1.07-0.08s0.21-0.35 0.21-0.82c0 0 0.04-0.25 0.34-0.25h2.27v2.01s0.21 0.34-1.37 0.34h-1.37s-0.55 0.21-0.55 0.6v6.75"/>
<path d="m411.46 324.04v4.95h0.86v-4.95z"/>
<path d="m415.73 323.99v6.37h-1.36v-6.37z"/>
<path d="m415.78 328.06l2.86-4.45"/>
<path d="m406.84 323.35s-1.79 7.14 0.77 12.53l0.69-0.26s-2.05-5.94-0.13-12.01"/>
<path d="m407.36 328.87l4.1-4.15-3.42 3.5-0.64-0.55"/>
<path d="m438.57 341.99v-5.51h0.77v5.51z"/>
</g>
<g>
<g stroke-width="0" fill="#fff">
<path d="m432.88 332.33l-9.41-8.12-0.21-1.97s-2.01 0.81-3.85 1.24l12.19 10.77 0.17 0.81 5.6 5.6s0.51 1.07 1.2 0.52v-4.62s0.21-1.15-1.33-2.27c0 0-3.12-2.43-4.36-1.96z"/>
</g>
<g stroke="#000" fill="none">
<path d="m432.88 332.33l-9.41-8.12-0.21-1.97s-2.01 0.81-3.85 1.24l12.19 10.77 0.17 0.81 5.6 5.6s0.51 1.07 1.2 0.52v-4.62s0.21-1.15-1.33-2.27c0 0-3.12-2.43-4.36-1.96z"/>
</g>
</g>
<g stroke-width="0">
<g fill="#000">
<path d="m386.52 345.55l-0.15-12.65s-2.27-3.74-4.96 0.05l0.15 12.48"/>
</g>
<g fill="#fff">
<path d="m392.82 332.09l9.31-8.23 0.19-1.96s2.02 0.78 3.86 1.19l-12.06 10.91-0.16 0.82-5.54 5.66s-0.5 1.08-1.19 0.53l-0.05-4.62s-0.23-1.15 1.3-2.28c0 0 3.09-2.47 4.34-2.02z"/>
</g>
</g>
<g>
<g stroke="#000" fill="none">
<path d="m392.82 332.09l9.31-8.23 0.19-1.96s2.02 0.78 3.86 1.19l-12.06 10.91-0.16 0.82-5.54 5.66s-0.5 1.08-1.19 0.53l-0.05-4.62s-0.23-1.15 1.3-2.28c0 0 3.09-2.47 4.34-2.02z"/>
</g>
<g stroke-width="0" fill="#fff">
<path d="m426.9 319.89s4.78 7.82 6.7 12.44"/>
</g>
<g stroke="#000" fill="none">
<path d="m426.9 319.89s4.78 7.82 6.7 12.44"/>
</g>
<g stroke-width="0" fill="#fff">
<path d="m428.69 317.84s5.81 11.2 7.74 15.81"/>
</g>
</g>
<g stroke="#000" fill="none">
<g>
<path d="m428.69 317.84s5.81 11.2 7.74 15.81"/>
</g>
<g stroke-width=".5">
<path d="m432.62 328.53c0.34 0 0.61-0.27 0.61-0.6 0-0.34-0.27-0.61-0.61-0.61-0.33 0-0.6 0.27-0.6 0.61 0 0.33 0.27 0.6 0.6 0.6z"/>
</g>
</g>
<g>
<g stroke-width="0" fill="#fff">
<path d="m399.68 320.61s-5.55 7.3-7.93 11.7"/>
</g>
<g stroke="#000" fill="none">
<path d="m399.68 320.61s-5.55 7.3-7.93 11.7"/>
</g>
<g stroke-width="0" fill="#fff">
<path d="m398.1 318.39s-6.91 10.56-9.29 14.96"/>
</g>
</g>
<g stroke="#000" fill="none">
<g>
<g>
<path d="m398.1 318.39s-6.91 10.56-9.29 14.96"/>
</g>
<g stroke-width=".5">
<path d="m393.11 328.63c-0.33-0.03-0.57-0.33-0.54-0.66s0.33-0.57 0.66-0.54c0.34 0.03 0.58 0.33 0.55 0.66-0.04 0.34-0.34 0.58-0.67 0.54z"/>
<path d="m435.49 335.11c0.33 0 0.6-0.27 0.6-0.6s-0.27-0.61-0.6-0.61c-0.34 0-0.61 0.28-0.61 0.61s0.27 0.6 0.61 0.6z"/>
<path d="m431.34 333.15c0.33 0 0.6-0.27 0.6-0.61 0-0.33-0.27-0.6-0.6-0.6s-0.61 0.27-0.61 0.6c0 0.34 0.28 0.61 0.61 0.61z"/>
<path d="m426.59 328.91c0.34 0 0.61-0.27 0.61-0.6s-0.27-0.6-0.61-0.6c-0.33 0-0.6 0.27-0.6 0.6s0.27 0.6 0.6 0.6z"/>
<path d="m422.19 324.17c0.34 0 0.61-0.27 0.61-0.6 0-0.34-0.27-0.61-0.61-0.61-0.33 0-0.6 0.27-0.6 0.61 0 0.33 0.27 0.6 0.6 0.6z"/>
</g>
</g>
<g stroke-linecap="round" stroke-width=".5">
<path d="m429.93 299.54s2.14 0.86 2.56-0.43c0 0 0.69-2.31 0.09-3.16 0 0-1.28-0.86-3.33 1.03 0 0-0.86 1.36 0.68 2.56z"/>
</g>
</g>
<g stroke-linecap="round" stroke-width="0" fill="#000">
<path d="m431.09 297.95c0.63 0.32 1.33 0.18 1.57-0.29 0.19-0.39 0.08-1.39-0.36-1.61-0.63-0.31-1.67-0.01-1.91 0.47s0.07 1.12 0.7 1.43z"/>
</g>
<g stroke="#000" fill="none">
<g stroke-linecap="round">
<g stroke-width=".5">
<path d="m431.09 297.95c0.63 0.32 1.33 0.18 1.57-0.29 0.19-0.39 0.08-1.39-0.36-1.61-0.63-0.31-1.67-0.01-1.91 0.47s0.07 1.12 0.7 1.43z"/>
</g>
<g stroke-width=".9">
<path d="m423.86 290.3s3.25 2.57 4.19 5.82"/>
<path d="m402.91 290.56s-3.25 2.57-4.19 5.82c0 0-1.79 3.59-7.35 4.78"/>
</g>
<g stroke-width=".5">
<path d="m429.16 297.66s-0.09 2.22 2.65 1.88"/>
</g>
</g>
<g stroke-width=".5">
<path d="m413.51 307.24c0.34 0 0.61-0.27 0.61-0.6 0-0.34-0.27-0.61-0.61-0.61-0.33 0-0.6 0.27-0.6 0.61 0 0.33 0.27 0.6 0.6 0.6z"/>
<path d="m413.5 307.16c0.49 0 0.88-0.39 0.88-0.88 0-0.48-0.39-0.88-0.88-0.88-0.48 0-0.88 0.4-0.88 0.88 0 0.49 0.4 0.88 0.88 0.88z"/>
</g>
<g stroke-linecap="round">
<g stroke-width=".5">
<path d="m45.5 390.94h102.6"/>
</g>
<g stroke-width="1.2">
<path d="m60.207 394.19v15.22-2.57h-26.676v9.07h-3.422v35.56s0 4.96 5.817 4.96h18.125l35.738-39.84h25.651v79.85h-5.99v4.45h60.02s1.54 0 1.54-0.68c0 0-0.68-2.23-4.27-2.23h-9.06l-3.25-1.54h-39.16"/>
<path d="m144.17 496.44l63.26-72.5s10.44 0.68 28.22-5.81c0 0 26.33-8.38 57.45-10.6 0 0 10.95 0.17 10.95-2.74 0 0 44.63-1.2 68.4-13l12.48-0.34v-0.51h9.58"/>
</g>
<g stroke-width=".95">
<path d="m113.9 416.59h67.37s34.89-0.68 40.7-2.39c0 0 8.38-1.54 11.12-2.4"/>
<path d="m136.81 390.94v25.65l-15.56 79.51"/>
<path d="m115.44 473.87h10.09"/>
<path d="m131.17 416.59l-9.06 57.28h1.88l10.26-57.28"/>
<path d="m133.57 496.44l53.69-72.33v-33.17"/>
<path d="m209.14 423.94h-73.7"/>
<path d="m137.5 496.44l55.06-72.5"/>
<path d="m157.16 423.94v-33"/>
<path d="m199.4 423.94v-17.78"/>
<path d="m213.93 423.43v-32.49"/>
<path d="m230.01 419.84v-23.94"/>
<path d="m247.62 414.88v-16.67"/>
<path d="m116.81 416.59v-23.43"/>
<path d="m181.1 432.49l2.91 2.57"/>
<path d="m185.04 427.36l2.9 2.57"/>
<path d="m189.31 424.11l1.71 1.54"/>
<path d="m177 438.13l2.91 2.57"/>
<path d="m174.26 441.9l2.91 2.56"/>
<path d="m169.82 447.54l2.9 2.56"/>
<path d="m166.4 452.67l2.56 2.05"/>
<path d="m163.32 456.43l2.74 2.22"/>
<path d="m159.9 461.22l2.39 2.22"/>
<path d="m156.14 466.01l2.56 2.39"/>
<path d="m150.32 473.7l2.74 2.23"/>
<path d="m146.39 479.52l2.39 2.05"/>
<path d="m142.97 486.87l-2.05 2.56"/>
<path d="m138.7 492.51l-2.74 3.42"/>
<path d="m142.97 421.89v-4.45h4.28v4.45z"/>
<path d="m177.34 426.62c1.07 0 1.93 0.87 1.93 1.94 0 1.06-0.86 1.93-1.93 1.93s-1.93-0.87-1.93-1.93c0-1.07 0.86-1.94 1.93-1.94z"/>
<path d="m171.53 465.15s6.15-0.34 6.49-1.37c0 0-2.56-1.02-4.44-1.19"/>
<path d="m197.86 435.23s6.16-0.34 6.5-1.37c0 0-2.57-1.03-4.45-1.2"/>
<path d="m136.81 405.64h50.28"/>
<path d="m157.33 395.9h56.6"/>
<path d="m187.26 407.18s16.58-0.68 26.84-4.27c0 0 79.52-0.68 97.64-2.57"/>
<path d="m192.39 406.84v-10.94"/>
<path d="m325.43 402.91v-11.97"/>
<path d="m311.74 404.28v-13.34"/>
<path d="m267.97 410.6v-8.54"/>
</g>
</g>
</g>
<g stroke-width="0" fill="#000">
<path d="m255.66 390.94s-1.2 8.04 12.99 8.55c0 0 17.44 1.88 33.69-2.22 0 0 7.18-1.89 6.84-6.33"/>
<path d="m252.41 390.94s0.34 4.1 2.39 5.81c0 0-24.28-0.68-23.94-5.81"/>
</g>
<g stroke="#000" fill="none">
<g stroke-width=".95">
<path d="m221.28 390.94s-2.05 1.54 19.33 4.44"/>
<path d="m310.55 391.11s2.39 9.06-21.89 8.04"/>
<path d="m325.43 397.09l-21.72 1.03"/>
<path d="m270.36 399.49s-24.79-0.34-45.14-4.45c0 0-29.76-3.93-37.45-4.1"/>
<path d="m305.25 404.79s-21.72 1.37-29.25 2.57c0 0-29.75 4.44-47.53 10.77 0 0-9.58 3.08-18.81 3.59"/>
</g>
<g stroke-linecap="round" stroke-width=".95">
<path d="m253.43 402.4v-3.77"/>
<path d="m249.5 402.23v-3.77"/>
</g>
<g stroke-width=".5">
<path d="m254.12 390.94s0.02 6.1 5.81 8.04"/>
<path d="m208.46 390.77v3.25s0.17 0.85-1.54 0.85h-8.72s-1.88 0-1.88-0.85v-3.08"/>
<path d="m216.16 393.85v5.47h8.04v-5.47z"/>
</g>
</g>
<g>
<g stroke-width="0" fill="#fff">
<path d="m232.23 410.86s0.77 2.31 15.82 1.37c0 0 9.83-0.17 12.73-3.25 0 0 1.46-2.48-5.72-2.22 0 0-22.57-0.35-22.83 4.1z"/>
</g>
<g stroke="#000" stroke-width=".95" fill="none">
<path d="m232.23 410.86s0.77 2.31 15.82 1.37c0 0 9.83-0.17 12.73-3.25 0 0 1.46-2.48-5.72-2.22 0 0-22.57-0.35-22.83 4.1z"/>
</g>
<g stroke-width="0" fill="#000">
<path d="m254.79 408.42c2.55-0.35 3.43-0.08 3.55 0.82 0.12 0.89-1.84 1.89-4.39 2.24-2.55 0.34-3.77 0.42-3.89-0.48-0.12-0.89 2.19-2.24 4.73-2.58z"/>
</g>
</g>
<g stroke="#000" stroke-linecap="round" stroke-width=".95" fill="none">
<path d="m247.71 406.07h39.67"/>
<path d="m194.87 395.81v-4.87"/>
<path d="m176.4 391.02v3h-3.08"/>
</g>
<g stroke-width="0" fill="#fff">
<path d="m173.23 390.94v3.42s0.43 1.28-2.82 0.51c0 0-8.37-1.45-11.11-3.93"/>
</g>
<g stroke="#000" fill="none">
<g stroke-width=".95">
<path d="m173.23 390.94v3.42s0.43 1.28-2.82 0.51c0 0-8.37-1.45-11.11-3.93"/>
</g>
<g stroke-linecap="round" stroke-width=".95">
<path d="m55.848 409.49h81.052"/>
<path d="m31.309 415.91l61.984 0.68"/>
<path d="m92.867 402.57h43.943"/>
<path d="m92.867 416.5v-22.57"/>
<path d="m60.293 403.42h19.066"/>
<path d="m60.293 399.23h19.066"/>
</g>
<g>
<path d="m18.484 390.94s-0.172 2.05 2.735 2.05c2.906 0 15.047 0.51 24.965-2.05"/>
<path d="m104.5 390.94s-50.449 3.25-63.102 1.02"/>
<path d="m58.156 392.82s17.27 2.91 96.954-1.2c0 0 1.2-0.17 1.54-0.68"/>
</g>
<g stroke-linecap="round" stroke-width=".95">
<path d="m79.531 416.33v-22.57"/>
<path d="m70.297 409.15v-15.39"/>
</g>
<g>
<path d="m128.78 392.99v2.39h3.59v-2.73"/>
<path d="m25.836 393.16v7.01s9.918 4.11 34.371 6.16"/>
</g>
<g stroke-linecap="round" stroke-width=".95">
<path d="m48.406 405.05v-12.49"/>
<path d="m43.789 404.19v-11.63"/>
<path d="m41.738 403.85v-11.63"/>
<path d="m87.223 416.5v-6.84"/>
</g>
<g stroke-width=".5">
<path d="m41.566 402.23l-15.73-3.25"/>
<path d="m41.738 400.17l-15.73-2.56"/>
<path d="m41.738 397.61l-15.73-2.05"/>
<path d="m41.738 394.53l-15.902-0.85"/>
<path d="m53.023 416.07v-1.53h2.739v-1.71h-2.739v-2.4h2.739v-1.71h-2.739v-1.88"/>
</g>
<g stroke-linecap="round">
<g stroke-width="1.2">
<path d="m60.207 387.69v-15.22 2.57h-26.676v-9.07h-3.422v-35.56s0-4.97 5.817-4.97h18.125l35.738 39.85h25.651v-79.86h-5.99v-4.44h60.02s1.54 0 1.54 0.68c0 0-0.68 2.23-4.27 2.23h-9.06l-3.25 1.53h-39.16"/>
<path d="m144.17 285.43l63.26 72.51s10.44-0.69 28.22 5.81c0 0 26.33 8.38 57.45 10.6 0 0 10.95-0.17 10.95 2.74 0 0 44.63 1.19 68.4 12.99l12.48 0.35v0.51h9.58"/>
</g>
<g stroke-width=".95">
<path d="m113.9 365.29h67.37s34.89 0.68 40.7 2.39c0 0 22.91 4.28 25.65 5.13"/>
<path d="m136.81 390.94v-25.65l-15.56-79.52"/>
<path d="m115.44 308h10.09"/>
<path d="m131.17 365.29l-9.06-57.29h1.88l10.26 57.29"/>
<path d="m133.57 285.43l53.69 72.34v33.17"/>
<path d="m209.14 357.94h-73.7"/>
<path d="m137.5 285.43l55.06 72.51"/>
<path d="m157.16 357.94v33"/>
<path d="m199.4 357.94v17.78"/>
<path d="m213.93 358.45v32.49"/>
<path d="m230.01 362.04v23.94"/>
<path d="m247.62 367v16.67"/>
<path d="m116.81 365.29v23.43"/>
<path d="m181.1 349.39l2.91-2.57"/>
<path d="m185.04 354.52l2.9-2.57"/>
<path d="m189.31 357.77l1.71-1.54"/>
<path d="m177 343.74l2.91-2.56"/>
<path d="m174.26 339.98l2.91-2.56"/>
<path d="m169.82 334.34l2.9-2.57"/>
<path d="m166.4 329.21l2.56-2.05"/>
<path d="m163.32 325.44l2.74-2.22"/>
<path d="m159.9 320.66l2.39-2.22"/>
<path d="m156.14 315.87l2.56-2.39"/>
<path d="m150.32 308.18l2.74-2.23"/>
<path d="m146.39 302.36l2.39-2.05"/>
<path d="m142.97 295.01l-2.05-2.57"/>
<path d="m138.7 289.37l-2.74-3.43"/>
<path d="m142.97 359.99v4.44h4.28v-4.44z"/>
<path d="m177.34 355.25c1.07 0 1.93-0.86 1.93-1.93s-0.86-1.94-1.93-1.94-1.93 0.87-1.93 1.94 0.86 1.93 1.93 1.93z"/>
<path d="m171.53 316.73s6.15 0.34 6.49 1.36c0 0-2.56 1.03-4.44 1.2"/>
<path d="m197.86 346.65s6.16 0.34 6.5 1.37c0 0-2.57 1.02-4.45 1.2"/>
<path d="m136.81 376.23h50.28"/>
<path d="m157.33 385.98h56.6"/>
<path d="m187.26 374.7s16.58 0.68 26.84 4.27c0 0 79.52 0.68 97.64 2.57"/>
<path d="m192.39 375.04v10.94"/>
<path d="m325.43 378.97v11.97"/>
<path d="m311.74 377.6v13.34"/>
<path d="m267.97 371.27v8.55"/>
</g>
</g>
</g>
<g stroke-width="0" fill="#000">
<path d="m255.66 390.94s-1.2-8.04 12.99-8.55c0 0 17.44-1.88 33.69 2.22 0 0 7.18 1.88 6.84 6.33"/>
<path d="m252.41 390.94s0.34-4.1 2.39-5.82c0 0-24.28 0.69-23.94 5.82"/>
</g>
<g stroke="#000" fill="none">
<g stroke-width=".95">
<path d="m221.28 390.94s-2.05-1.54 19.33-4.45"/>
<path d="m310.55 390.77s2.39-9.07-21.89-8.04"/>
<path d="m325.43 384.78l-21.72-1.02"/>
<path d="m270.36 382.39s-24.79 0.34-45.14 4.45c0 0-29.76 3.93-37.45 4.1"/>
<path d="m305.25 377.09s-21.72-1.37-29.25-2.57c0 0-29.75-4.44-47.53-10.77 0 0-9.58-3.08-18.81-3.59"/>
</g>
<g stroke-linecap="round" stroke-width=".95">
<path d="m253.43 379.48v3.76"/>
<path d="m249.5 379.65v3.76"/>
</g>
<g stroke-width=".5">
<path d="m254.12 390.94s0.02-6.1 5.81-8.04"/>
<path d="m208.46 391.11v-3.25s0.17-0.85-1.54-0.85h-8.72s-1.88 0-1.88 0.85v3.08"/>
</g>
<g stroke-linecap="round" stroke-width=".95">
<path d="m247.71 375.8h39.67"/>
<path d="m194.87 386.07v4.87"/>
<path d="m176.4 390.85v-2.99h-3.08"/>
</g>
</g>
<g stroke-width="0" fill="#fff">
<path d="m173.23 390.94v-3.42s0.43-1.28-2.82-0.51c0 0-8.37 1.45-11.11 3.93"/>
</g>
<g stroke="#000" fill="none">
<g stroke-width=".95">
<path d="m173.23 390.94v-3.42s0.43-1.28-2.82-0.51c0 0-8.37 1.45-11.11 3.93"/>
</g>
<g stroke-linecap="round" stroke-width=".95">
<path d="m55.848 372.39h81.052"/>
<path d="m31.309 365.97l61.984-0.68"/>
<path d="m92.867 379.31h43.943"/>
<path d="m92.867 365.38v22.56"/>
<path d="m60.293 378.46h19.066"/>
<path d="m60.293 382.64h19.066"/>
</g>
<g>
<path d="m18.484 390.94s-0.172-2.05 2.735-2.05c2.906 0 15.047-0.51 24.965 2.05"/>
<path d="m104.5 390.94s-50.449-3.25-63.102-1.03"/>
<path d="m58.156 389.06s17.27-2.91 96.954 1.19c0 0 1.2 0.18 1.54 0.69"/>
</g>
<g stroke-linecap="round" stroke-width=".95">
<path d="m79.531 365.55v22.57"/>
<path d="m70.297 372.73v15.39"/>
</g>
<g>
<path d="m128.78 388.89v-2.4h3.59v2.74"/>
<path d="m25.836 388.72v-7.02s9.918-4.1 34.371-6.15"/>
</g>
<g stroke-linecap="round" stroke-width=".95">
<path d="m48.406 376.83v12.48"/>
<path d="m43.789 377.69v11.62"/>
<path d="m41.738 378.03v11.63"/>
<path d="m87.223 365.38v6.84"/>
</g>
<g stroke-width=".5">
<path d="m41.566 379.65l-15.73 3.25"/>
<path d="m41.738 381.7l-15.73 2.57"/>
<path d="m41.738 384.27l-15.73 2.05"/>
<path d="m41.738 387.35l-15.902 0.85"/>
<path d="m53.023 365.8v1.54h2.739v1.71h-2.739v2.39h2.739v1.72h-2.739v1.88"/>
</g>
</g>
<g>
<g stroke-width="0" fill="#fff">
<path d="m393.8 549.13l-13.08-6.87-0.99 1.9 13.08 6.86z"/>
</g>
<g stroke="#000" fill="none">
<path d="m393.8 549.13l-13.08-6.87-0.99 1.9 13.08 6.86z"/>
</g>
<g stroke-width="0" fill="#fff">
<path d="m396.05 550.04v-4.57h-2.74v4.57z"/>
</g>
</g>
<g stroke="#000" fill="none">
<g>
<path d="m396.05 550.04v-4.57h-2.74v4.57z"/>
<path d="m524.34 516.78v-7.01s-9.07-4.1-33.52-6.16v-1.36s10.43-0.34 15.05 1.02c0 0 5.47 1.37 5.47-1.19 0-2.57-0.17-5.14-0.17-5.14s2.74 0.18 2.74-1.02 0.17-3.76 0.17-3.76-0.86-1.54-3.08-1.37l21.2-46.17s4.28-1.88 1.2-4.44h-26.5l-53.87 48.73-53.35 13.51-35.4-0.17s-26.33-0.69-41.89-5.13c0 0-36.77-10.43-58.14-2.91 0 0-8.89 3.08-23.09 12.65 0 0-44.8 6.16-60.18 15.57v1.53s25.64 3.94 47.7 3.77 49.76-0.69 56.09-1.71l-0.17 1.2-4.96 0.16s4.96 0.52 5.98 4.11l0.86 7.69s1.03 1.72 3.59 1.88c2.57 0.17 67.37-0.68 67.37-0.68"/>
</g>
<g stroke-linecap="round" stroke-width=".95">
<path d="m501.77 504.9v16.58"/>
<path d="m506.38 505.75v15.73"/>
<path d="m508.43 506.09v14.54"/>
</g>
<g>
<g stroke-width=".5">
<path d="m508.6 507.72l15.74 3.25"/>
<path d="m508.43 509.77l15.74 2.57"/>
<path d="m508.43 512.34l15.74 2.05"/>
<path d="m508.43 515.07l15.91 1.2"/>
</g>
<g>
<path d="m524.34 516.78v11.46s-9.92 4.79-34.37 6.84l-25.99 2.39"/>
</g>
</g>
<g stroke-linecap="round" stroke-width=".95">
<path d="m501.77 533.8v-13.17"/>
<path d="m506.38 532.94v-11.63"/>
<path d="m508.43 532.43v-12.14"/>
</g>
<g stroke-width=".5">
<path d="m508.6 530.29l15.74-3.25"/>
<path d="m508.43 528.24l15.74-2.56"/>
<path d="m508.43 525.68l15.74-2.06"/>
<path d="m508.43 522.43l15.91-0.86"/>
</g>
</g>
<g stroke-linecap="round" stroke-width="0" fill="#fff">
<path d="m462.61 519.52s38.3-4.28 58.99 0.85v6.16s-8.89 1.71-20.35 1.54z"/>
</g>
<g stroke="#000" fill="none">
<g stroke-linecap="round" stroke-width="1.15">
<path d="m462.61 519.52s38.3-4.28 58.99 0.85v6.16s-8.89 1.71-20.35 1.54z"/>
</g>
<g stroke-width=".5">
<path d="m508.43 518.15l15.91 0.85"/>
</g>
</g>
<g stroke-linecap="round">
<g stroke-width="0" fill="#fff">
<path d="m357.78 530.98v11.45s-0.51 2.74 10.61 2.91l28.73 0.17v-14.53z"/>
</g>
<g stroke="#000" stroke-width="1.15" fill="none">
<path d="m357.78 530.98v11.45s-0.51 2.74 10.61 2.91l28.73 0.17v-14.53z"/>
</g>
<g stroke-width="0" fill="#fff">
<path d="m397.28 539.18c0.18 0 32.32-0.17 32.32-0.17"/>
</g>
<g stroke="#000" stroke-width="1.15" fill="none">
<path d="m397.28 539.18c0.18 0 32.32-0.17 32.32-0.17"/>
</g>
<g stroke-width="0" fill="#fff">
<path d="m427.72 535.93l9.24 14.88 27.02-5.99-0.35-10.25z"/>
</g>
</g>
<g stroke="#000" stroke-linecap="round" fill="none">
<g stroke-width="1.15">
<path d="m427.72 535.93l9.24 14.88 27.02-5.99-0.35-10.25z"/>
</g>
<g stroke-width=".95">
<path d="m395.23 502.42l95.59 1.19"/>
<path d="m436.27 502.93v-9.66"/>
<path d="m419.52 502.59v-4.96"/>
<path d="m406.01 500.88c-0.17 0 3.59-6.67 3.59-6.67h2.39l-0.85 5.3"/>
<path d="m452.86 488.74l8.04 2.05h46 4.1"/>
<path d="m460.73 503.1v-12.31l50.44-50.61"/>
<path d="m436.27 495.58h24.46"/>
<path d="m484.15 503.44l39.67-59.16"/>
<path d="m485.18 501.73h19.32s2.91-0.51 2.91-3.25v-7.69"/>
<path d="m511.17 490.79v6.15h-3.76v-6.15z"/>
<path d="m508.43 442.91l13.51-0.17s1.54 1.71 3.25 1.71h7.19"/>
<path d="m467.74 496.77c-0.15-0.09 1.19-1.7 14.7-0.17 0 0-10.94 2.57-14.7 0.17z"/>
</g>
<g stroke-width="1.1">
<path d="m443.63 518.15c-0.17 0-62.93 2.22-62.93 2.22s-6.5 1.54 0 3.25l62.93-2.05z"/>
<path d="m395.23 523.11l-6.83 5.47 40.52-1.54-3.25-4.79"/>
<path d="m389.08 527.9l-34.88 1.02 13.34-8.2s3.07 2.56 6.84 2.56h5.12"/>
<path d="m363.94 522.77s-8.55 0.17-20.01-3.25c0 0 52.84-6.33 83.45-0.86 0 0-21.72-9.91-125.17 0.34"/>
<path d="m343.93 519.52s-77.63-1.37-89.25 0.51"/>
<path d="m336.07 511.48s-52.67-1.88-83.11 8.21c0 0-5.81 2.05 1.72 2.56l30.09 0.69"/>
</g>
</g>
<g>
<g stroke-width="0" fill="#fff">
<path d="m314.7 513.79s-1.97-1.11-10.52-1.37c0 0-11.03-0.51-11.89 3.59 0 0-1.45 2.48 5.73 2.22 0 0 16.42 0 16.68-4.44z"/>
</g>
<g stroke="#000" stroke-width=".95" fill="none">
<path d="m314.7 513.79s-1.97-1.11-10.52-1.37c0 0-11.03-0.51-11.89 3.59 0 0-1.45 2.48 5.73 2.22 0 0 16.42 0 16.68-4.44z"/>
</g>
<g stroke-width="0" fill="#000">
<path d="m298.12 517.09c-2.55 0.34-4.12-0.44-4.24-1.34-0.12-0.89 2.19-2.06 4.74-2.41-0.59 0.08 2.34 0.02 2.52 1.34 0.25 1.8-3.79 2.51-3.02 2.41z"/>
</g>
</g>
<g stroke="#000" stroke-linecap="round" fill="none">
<g stroke-width="1.1">
<path d="m284.77 526.02l35.23-3.42"/>
<path d="m284.26 527.22s19.49-0.69 35.74-1.38"/>
<path d="m363.09 523.11l-12.15-0.17s-5.12-1.71-30.77-1.54v5.64l20-0.17"/>
<path d="m334.7 504.64v-2.65l-3.42-0.43v3.08z"/>
<path d="m241.68 506.86l2.22 3.25s27.7-1.02 46.69-5.98l34.19-6.5"/>
</g>
<g stroke-width=".95">
<path d="m226.12 527.73v-18.3"/>
<path d="m240.31 527.56v-20.52"/>
<path d="m226.12 513.53l14.19-2.56v2.39h12.83v6.16"/>
<path d="m253.31 522.25v5.13"/>
<path d="m284.77 519.18v6.5"/>
<path d="m284.77 506.69v6.84"/>
</g>
<g stroke-width="1.2">
<path d="m180.98 522.43l-12.57 0.17v0.51h-9.58"/>
<path d="m180.89 523.96l-12.48-0.34v-0.51h-9.58"/>
</g>
<g stroke-width=".95">
<path d="m303.66 501.82v10"/>
<path d="m321.36 498.31v18.9"/>
<path d="m321.28 527.04v13.77"/>
<path d="m281.44 506.18l0.25 0.94s26.42-2.99 39.76-1.97c0 0 11.11 0.52 28.64 3.51l14.45 0.34h29.07 65.32 13"/>
<path d="m295.07 531.96c0-0.09 0.6-0.86 7.36-0.09 0 0-7.32 0.94-7.36 0.09z"/>
</g>
</g>
<g stroke-width="0" fill="#000">
<path d="m295.54 492.07l-6.75 9.15s-1.11 2.39-7.61 3c0 0-29.84 4.44-39.08 2.13 0 0 16.42-11.8 28.39-13.76 0 0 10.78-2.23 25.05-0.52z"/>
<path d="m298.45 492.5l-6.41 9.32 29.41-4.96s-11.8-3.08-23-4.36z"/>
</g>
<g stroke="#000" fill="none">
<g stroke-linecap="round" stroke-width=".95">
<path d="m321.28 529.95v10.86"/>
<path d="m321.41 500.79l14.96 1.2c0.04-0.15 0.04 38.56 0.04 38.56"/>
<path d="m349.58 508.57v6.84"/>
<path d="m364.11 502.42v12.14"/>
<path d="m351.12 523.11v7.52"/>
<path d="m336.41 530.63c-0.24 0 22.4 0.35 22.4 0.35"/>
</g>
<g stroke-width="1.1">
<path d="m300.5 541.06c-0.17 0 0 11.63 0 11.63h31.98l2.56-2.73v-6.5l-2.22-2.74"/>
</g>
</g>
<g stroke-width="0">
<g fill="#000">
<path d="m304.09 563.98c4.95-0.38 5.82-0.86 5.57-4.54-0.22-3.06-2.5-5.56-5.57-5.56s-5.56 2.5-5.56 5.56c0 3.08 1.12 4.88 5.56 4.54z"/>
</g>
<g fill="#fff">
<path d="m304.09 562.65c1.77 0 3.21-1.43 3.21-3.21 0-1.76-1.44-3.2-3.21-3.2s-3.2 1.44-3.2 3.2c0 1.78 1.43 3.21 3.2 3.21z"/>
</g>
</g>
<g stroke-width="0" fill="#000">
<path d="m304.09 560.72c0.7 0 1.27-0.57 1.27-1.28 0-0.69-0.57-1.26-1.27-1.26s-1.27 0.57-1.27 1.26c0 0.71 0.57 1.28 1.27 1.28z"/>
<path d="m307 555v-5.3l16.41-8.89-4.69 0.09-14.45 7.77v5.47z"/>
<path d="m304.6 545.17v-4.11h-1.53v4.11z"/>
</g>
<g>
<g stroke-width="0" fill="#fff">
<path d="m303.07 545.17l-0.43 0.26s-0.68 2.39 0.86 3.16l3.24 1.37s0.69 0.16 1.12-0.26c0.42-0.43 1.19-2.31 1.19-2.31l-4.45-2.22z"/>
</g>
<g stroke="#000" fill="none">
<path d="m303.07 545.17l-0.43 0.26s-0.68 2.39 0.86 3.16l3.24 1.37s0.69 0.16 1.12-0.26c0.42-0.43 1.19-2.31 1.19-2.31l-4.45-2.22z"/>
</g>
<g stroke-width="0" fill="#fff">
<path d="m305.46 545.68s1.88-1.54 2.05-4.7h1.71l-0.26 2.99s-0.68 2.48-1.19 2.82z"/>
</g>
</g>
<g stroke="#000" fill="none">
<g>
<g>
<path d="m305.46 545.68s1.88-1.54 2.05-4.7h1.71l-0.26 2.99s-0.68 2.48-1.19 2.82z"/>
</g>
<g stroke-width=".95">
<path d="m336.41 502.08l27.62 2.14 29.24 0.34"/>
<path d="m359.84 508.83v-4.96"/>
</g>
</g>
<g stroke-linecap="round" stroke-width=".95">
<path d="m393.36 502.5v12.14"/>
</g>
</g>
<g stroke-width="0">
<g fill="#000">
<path d="m396.69 564.03c6.41 0.12 8.34-2.71 8.34-7.32s-3.73-8.34-8.34-8.34-8.41 3.73-8.35 8.34c0.06 3.85 1.94 7.2 8.35 7.32z"/>
</g>
<g fill="#fff">
<path d="m396.69 561.6c2.71 0 4.9-2.19 4.9-4.89 0-2.71-2.19-4.9-4.9-4.9s-4.9 2.19-4.9 4.9c0 2.7 2.19 4.89 4.9 4.89z"/>
</g>
</g>
<g stroke="#000" stroke-width=".5" fill="none">
<path d="m396.69 558.77c1.13 0 2.05-0.93 2.05-2.06 0-1.14-0.92-2.05-2.05-2.05s-2.06 0.91-2.06 2.05c0 1.13 0.93 2.06 2.06 2.06z"/>
</g>
<g stroke-width="0" fill="#000">
<path d="m399.12 553.84c0.19 0 0.34-0.15 0.34-0.34 0-0.18-0.15-0.33-0.34-0.33-0.18 0-0.33 0.15-0.33 0.33 0 0.19 0.15 0.34 0.33 0.34z"/>
<path d="m400.35 555.82c0.15 0.11 0.36 0.08 0.46-0.07 0.11-0.15 0.08-0.36-0.07-0.47s-0.36-0.07-0.46 0.08c-0.11 0.14-0.08 0.35 0.07 0.46z"/>
<path d="m400.16 558.18c0.05 0.18 0.24 0.27 0.41 0.22 0.18-0.06 0.28-0.24 0.22-0.42-0.05-0.17-0.24-0.27-0.41-0.21-0.18 0.05-0.28 0.24-0.22 0.41z"/>
<path d="m398.61 559.95c-0.06 0.17 0.03 0.36 0.21 0.43 0.17 0.05 0.36-0.04 0.42-0.21 0.06-0.18-0.03-0.37-0.2-0.42-0.18-0.07-0.37 0.03-0.43 0.2z"/>
<path d="m396.34 560.46c-0.15 0.11-0.19 0.31-0.09 0.47 0.11 0.14 0.32 0.18 0.47 0.08 0.15-0.11 0.19-0.31 0.08-0.47-0.1-0.14-0.31-0.18-0.46-0.08z"/>
<path d="m394.17 559.51c-0.19-0.01-0.34 0.14-0.35 0.32 0 0.19 0.14 0.34 0.32 0.35 0.19 0 0.34-0.14 0.35-0.33 0.01-0.18-0.14-0.33-0.32-0.34z"/>
<path d="m393.01 557.54c-0.14-0.11-0.35-0.08-0.46 0.07-0.11 0.14-0.08 0.35 0.06 0.46 0.15 0.11 0.36 0.09 0.47-0.06s0.08-0.36-0.07-0.47z"/>
<path d="m393.23 555.22c-0.06-0.17-0.24-0.27-0.42-0.22-0.17 0.06-0.27 0.24-0.22 0.42 0.05 0.17 0.24 0.27 0.42 0.22 0.17-0.05 0.27-0.24 0.22-0.42z"/>
<path d="m394.8 553.45c0.06-0.17-0.03-0.36-0.2-0.43-0.17-0.06-0.37 0.04-0.42 0.21-0.07 0.17 0.02 0.36 0.2 0.42 0.17 0.06 0.36-0.03 0.42-0.2z"/>
<path d="m396.99 552.95c0.15-0.1 0.19-0.31 0.08-0.46s-0.32-0.18-0.47-0.08c-0.14 0.11-0.18 0.32-0.07 0.47s0.31 0.18 0.46 0.07z"/>
</g>
<g stroke="#000" stroke-width=".95" fill="none">
<path d="m442.09 522.6v11.46h-4.11v-11.46z"/>
<path d="m464.83 528.75v-4.45h-5.81v4.45z"/>
<path d="m490.48 517.81v-14.2"/>
<path d="m490.48 534.91v-9.41"/>
<path d="m472.18 518.84v-15.23"/>
<path d="m394.04 514.56s38.47-0.17 65.15 1.2v-12.49"/>
<path d="m481.42 510.97v-7.36"/>
<path d="m413.53 515.93v-13.34"/>
<path d="m413.53 511.65s54.04 0.69 92.85 4.28"/>
<path d="m459.19 515.76s28.21 0.51 37.1 2.05"/>
<path d="m464.66 537.3v-8.55l-66.86 0.69"/>
<path d="m423.62 538.67v-9.4"/>
<path d="m397.63 539.18v-10.94"/>
<path d="m464.83 530.12h25.65"/>
<path d="m490.65 532.17l10.94-0.68"/>
<path d="m490.65 528.92l10.94-0.68"/>
<path d="m483.13 524.14h-39.67v-11.63"/>
</g>
</g>
</svg>
